<svg width="196" height="71" viewBox="0 0 196 71" fill="none" xmlns="http://www.w3.org/2000/svg">
<path d="M69.3523 29.5881V26.5455H83.6875V29.5881H78.3438V44H74.696V29.5881H69.3523ZM89.9964 44.2557C88.6726 44.2557 87.5277 43.9744 86.5618 43.4119C85.6016 42.8437 84.8601 42.054 84.3374 41.0426C83.8146 40.0256 83.5533 38.8466 83.5533 37.5057C83.5533 36.1534 83.8146 34.9716 84.3374 33.9602C84.8601 32.9432 85.6016 32.1534 86.5618 31.5909C87.5277 31.0227 88.6726 30.7386 89.9964 30.7386C91.3203 30.7386 92.4624 31.0227 93.4226 31.5909C94.3885 32.1534 95.1328 32.9432 95.6555 33.9602C96.1783 34.9716 96.4396 36.1534 96.4396 37.5057C96.4396 38.8466 96.1783 40.0256 95.6555 41.0426C95.1328 42.054 94.3885 42.8437 93.4226 43.4119C92.4624 43.9744 91.3203 44.2557 89.9964 44.2557ZM90.0135 41.4432C90.6158 41.4432 91.1186 41.2727 91.522 40.9318C91.9254 40.5852 92.2294 40.1136 92.4339 39.517C92.6442 38.9205 92.7493 38.2415 92.7493 37.4801C92.7493 36.7188 92.6442 36.0398 92.4339 35.4432C92.2294 34.8466 91.9254 34.375 91.522 34.0284C91.1186 33.6818 90.6158 33.5085 90.0135 33.5085C89.4055 33.5085 88.8942 33.6818 88.4794 34.0284C88.0703 34.375 87.7607 34.8466 87.5504 35.4432C87.3459 36.0398 87.2436 36.7188 87.2436 37.4801C87.2436 38.2415 87.3459 38.9205 87.5504 39.517C87.7607 40.1136 88.0703 40.5852 88.4794 40.9318C88.8942 41.2727 89.4055 41.4432 90.0135 41.4432ZM105.056 44H98.8686V26.5455H105.107C106.863 26.5455 108.374 26.8949 109.641 27.5938C110.908 28.2869 111.883 29.2841 112.565 30.5852C113.252 31.8864 113.596 33.4432 113.596 35.2557C113.596 37.0739 113.252 38.6364 112.565 39.9432C111.883 41.25 110.903 42.2528 109.624 42.9517C108.352 43.6506 106.829 44 105.056 44ZM102.559 40.8381H104.903C105.994 40.8381 106.911 40.6449 107.656 40.2585C108.406 39.8665 108.968 39.2614 109.343 38.4432C109.724 37.6193 109.914 36.5568 109.914 35.2557C109.914 33.9659 109.724 32.9119 109.343 32.0938C108.968 31.2756 108.408 30.6733 107.664 30.2869C106.92 29.9006 106.002 29.7074 104.911 29.7074H102.559V40.8381ZM122.176 44.2557C120.852 44.2557 119.707 43.9744 118.741 43.4119C117.781 42.8437 117.04 42.054 116.517 41.0426C115.994 40.0256 115.733 38.8466 115.733 37.5057C115.733 36.1534 115.994 34.9716 116.517 33.9602C117.04 32.9432 117.781 32.1534 118.741 31.5909C119.707 31.0227 120.852 30.7386 122.176 30.7386C123.5 30.7386 124.642 31.0227 125.602 31.5909C126.568 32.1534 127.312 32.9432 127.835 33.9602C128.358 34.9716 128.619 36.1534 128.619 37.5057C128.619 38.8466 128.358 40.0256 127.835 41.0426C127.312 42.054 126.568 42.8437 125.602 43.4119C124.642 43.9744 123.5 44.2557 122.176 44.2557ZM122.193 41.4432C122.795 41.4432 123.298 41.2727 123.702 40.9318C124.105 40.5852 124.409 40.1136 124.614 39.517C124.824 38.9205 124.929 38.2415 124.929 37.4801C124.929 36.7188 124.824 36.0398 124.614 35.4432C124.409 34.8466 124.105 34.375 123.702 34.0284C123.298 33.6818 122.795 33.5085 122.193 33.5085C121.585 33.5085 121.074 33.6818 120.659 34.0284C120.25 34.375 119.94 34.8466 119.73 35.4432C119.526 36.0398 119.423 36.7188 119.423 37.4801C119.423 38.2415 119.526 38.9205 119.73 39.517C119.94 40.1136 120.25 40.5852 120.659 40.9318C121.074 41.2727 121.585 41.4432 122.193 41.4432ZM136.603 44V26.5455H140.293V40.9574H147.776V44H136.603ZM150.152 44V30.9091H153.783V44H150.152ZM151.976 29.2216C151.436 29.2216 150.973 29.0426 150.587 28.6847C150.206 28.321 150.016 27.8864 150.016 27.3807C150.016 26.8807 150.206 26.4517 150.587 26.0938C150.973 25.7301 151.436 25.5483 151.976 25.5483C152.516 25.5483 152.976 25.7301 153.357 26.0938C153.743 26.4517 153.936 26.8807 153.936 27.3807C153.936 27.8864 153.743 28.321 153.357 28.6847C152.976 29.0426 152.516 29.2216 151.976 29.2216ZM167.583 34.642L164.259 34.8466C164.202 34.5625 164.08 34.3068 163.893 34.0795C163.705 33.8466 163.458 33.6619 163.151 33.5256C162.85 33.3835 162.489 33.3125 162.069 33.3125C161.506 33.3125 161.032 33.4318 160.646 33.6705C160.259 33.9034 160.066 34.2159 160.066 34.608C160.066 34.9205 160.191 35.1847 160.441 35.4006C160.691 35.6165 161.12 35.7898 161.728 35.9205L164.097 36.3977C165.37 36.6591 166.319 37.0795 166.944 37.6591C167.569 38.2386 167.881 39 167.881 39.9432C167.881 40.8011 167.629 41.554 167.123 42.2017C166.623 42.8494 165.935 43.3551 165.06 43.7188C164.191 44.0767 163.188 44.2557 162.052 44.2557C160.319 44.2557 158.938 43.8949 157.91 43.1733C156.887 42.446 156.288 41.4574 156.112 40.2074L159.683 40.0199C159.79 40.5483 160.052 40.9517 160.467 41.2301C160.881 41.5028 161.413 41.6392 162.06 41.6392C162.697 41.6392 163.208 41.517 163.594 41.2727C163.987 41.0227 164.185 40.7017 164.191 40.3097C164.185 39.9801 164.046 39.7102 163.773 39.5C163.501 39.2841 163.08 39.1193 162.512 39.0057L160.245 38.554C158.967 38.2983 158.015 37.8551 157.39 37.2244C156.771 36.5937 156.461 35.7898 156.461 34.8125C156.461 33.9716 156.688 33.2472 157.143 32.6392C157.603 32.0312 158.248 31.5625 159.077 31.233C159.913 30.9034 160.89 30.7386 162.009 30.7386C163.663 30.7386 164.964 31.0881 165.913 31.7869C166.867 32.4858 167.424 33.4375 167.583 34.642ZM177.131 30.9091V33.6364H169.247V30.9091H177.131ZM171.037 27.7727H174.668V39.9773C174.668 40.3125 174.719 40.5739 174.821 40.7614C174.923 40.9432 175.065 41.071 175.247 41.1449C175.435 41.2187 175.651 41.2557 175.895 41.2557C176.065 41.2557 176.236 41.2415 176.406 41.2131C176.577 41.179 176.707 41.1534 176.798 41.1364L177.369 43.8381C177.188 43.8949 176.932 43.9602 176.602 44.0341C176.273 44.1136 175.872 44.1619 175.401 44.179C174.526 44.2131 173.759 44.0966 173.099 43.8295C172.446 43.5625 171.938 43.1477 171.574 42.5852C171.21 42.0227 171.031 41.3125 171.037 40.4545V27.7727Z" fill="#353644"/>
<path d="M34.3906 35.5L39.5312 40.6406L48.3438 31.8281M60.0938 35.5C60.0937 40.564 58.0821 45.4205 54.5013 49.0013C50.9205 52.5821 46.064 54.5938 41 54.5938C35.936 54.5938 31.0795 52.5821 27.4987 49.0013C23.9179 45.4205 21.9063 40.564 21.9062 35.5C21.9062 30.436 23.9179 25.5795 27.4987 21.9987C31.0795 18.4179 35.936 16.4063 41 16.4062C46.064 16.4063 50.9205 18.4179 54.5013 21.9987C58.0821 25.5795 60.0937 30.436 60.0938 35.5Z" stroke="#FDBF46" stroke-width="2.9375" stroke-linecap="round" stroke-linejoin="round"/>
</svg>
